<svg xmlns="http://www.w3.org/2000/svg" version="1.1" xmlns:xlink="http://www.w3.org/1999/xlink" viewBox="0 0 8.593347239119515 1.8274292703695154"><g transform="matrix(1,0,0,1,0.3102146351847579,0.5537146351847577)"><rect width="8.593347239119515" height="8.593347239119515" x="-0.3102146351847579" y="-3.9366736195597576" fill="#343432"></rect><g clip-path="url(#SvgjsClipPath1002)"><g clip-path="url(#SvgjsClipPath100069b963c0-95ad-4b7a-a1d8-4400ccb5e5af)"><path d=" M 3.7277431347851175 -0.24349999999999988 L 4.6932949511523825 -0.24349999999999988 C 4.759969032056366 -0.24349999999999988 4.8140190429687495 -0.18944998908761668 4.8140190429687495 -0.12277590818363264 L 4.8140190429687495 0.8427759081836326 C 4.8140190429687495 0.9094499890876164 4.759969032056366 0.9634999999999998 4.6932949511523825 0.9634999999999998 L 3.7277431347851175 0.9634999999999998 C 3.6610690538811332 0.9634999999999998 3.60701904296875 0.9094499890876164 3.60701904296875 0.8427759081836326 L 3.60701904296875 -0.12277590818363264 C 3.60701904296875 -0.18944998908761668 3.6610690538811332 -0.24349999999999988 3.7277431347851175 -0.24349999999999988 Z" fill="#d1082a" transform="matrix(1,0,0,1,0,0)" fill-rule="nonzero"></path></g><g clip-path="url(#SvgjsClipPath100069b963c0-95ad-4b7a-a1d8-4400ccb5e5af)"><path d=" M 3.970002409568883 0.1676669993346641 L 3.970002409568883 0.4921034597471721 C 3.970002409568883 0.5179861011310711 3.979775656408537 0.5348182501663341 3.987846414891571 0.543860711909514 C 4.005690420214259 0.5638488888888884 4.013721025670014 0.5697353226879569 4.081804498723907 0.6024841317365266 C 4.084791883953447 0.6655243845642047 4.087955942503015 0.7594824683965398 4.090300879296095 0.7977643646041246 C 4.092645816089176 0.8360462608117094 4.127442429528963 0.8480921689953425 4.137344166055909 0.8480921689953425 L 4.283774225936148 0.8480921689953425 C 4.2936759624630945 0.8480921689953425 4.3284725759028815 0.8360462608117094 4.330817512695962 0.7977643646041246 C 4.333162449489042 0.7594824683965398 4.33632650803861 0.6655243845642047 4.339313893268151 0.6024841317365266 C 4.407357213294764 0.5696951696606785 4.415387818750519 0.56380873586161 4.433271977100486 0.543860711909514 C 4.441302582556241 0.5348182501663337 4.451115982423174 0.5179861011310711 4.451115982423174 0.4921034597471721 L 4.451115982423174 0.1676669993346641 L 3.970002409568883 0.1676669993346641 Z" fill="#ffffff" transform="matrix(1,0,0,1,0,0)" fill-rule="nonzero"></path></g><g clip-path="url(#SvgjsClipPath100069b963c0-95ad-4b7a-a1d8-4400ccb5e5af)"><path d=" M 3.863596887280127 0.4147446373918829 L 3.9199476457631612 0.4147446373918829 L 3.9199476457631612 0.31730930139720576 L 3.757729415556907 0.31730930139720576 C 3.7706667209461284 0.3839633266799734 3.827595683021977 0.4147446373918829 3.863596887280127 0.4147446373918829 Z" fill="#ffffff" transform="matrix(1,0,0,1,0,0)" fill-rule="nonzero"></path></g><g clip-path="url(#SvgjsClipPath100069b963c0-95ad-4b7a-a1d8-4400ccb5e5af)"><path d=" M 3.91887154463209 0.2656403858948769 L 3.91887154463209 0.1676669993346641 C 3.8859460622634936 0.16606087824351295 3.862392296461764 0.13742373918829004 3.862392296461764 0.07264084497671341 C 3.862392296461764 0.007857950765136568 3.876044325736548 -0.06093221556886197 3.910840939176335 -0.1286623419827011 C 3.830269874638743 -0.09144851630073184 3.767366142103813 -0.002308795741849584 3.767366142103813 0.1130588822355289 C 3.767366142103813 0.19149380572188962 3.8313379451643588 0.2656403858948769 3.91887154463209 0.2656403858948769 Z" fill="#ffffff" transform="matrix(1,0,0,1,0,0)" fill-rule="nonzero"></path></g><g clip-path="url(#SvgjsClipPath100069b963c0-95ad-4b7a-a1d8-4400ccb5e5af)"><path d=" M 4.501090440174338 0.31730930139720576 L 4.501090440174338 0.4147446373918829 L 4.557441198657372 0.4147446373918829 C 4.593442402915523 0.4147446373918829 4.650371364991371 0.3839633266799734 4.663308670380593 0.31730930139720576 Z" fill="#ffffff" transform="matrix(1,0,0,1,0,0)" fill-rule="nonzero"></path></g><g clip-path="url(#SvgjsClipPath100069b963c0-95ad-4b7a-a1d8-4400ccb5e5af)"><path d=" M 4.653671943833686 0.1130588822355289 C 4.653671943833686 -0.002308795741849584 4.590768211298757 -0.09144851630073184 4.510197146761165 -0.1286623419827011 C 4.544993760200952 -0.06093221556886219 4.558645789475736 0.007857950765136346 4.558645789475736 0.07264084497671341 C 4.558645789475736 0.13742373918829026 4.5350920236740055 0.16606087824351295 4.502166541305409 0.1676669993346641 L 4.502166541305409 0.2656403858948769 C 4.589700140773141 0.2656403858948769 4.653671943833686 0.19149380572188962 4.653671943833686 0.1130588822355289 Z" fill="#ffffff" transform="matrix(1,0,0,1,0,0)" fill-rule="nonzero"></path></g></g><g><path d=" M 0.355 0.7199999999999999 Q 0.261 0.7199999999999999 0.1945 0.6884999999999999 Q 0.128 0.6569999999999998 0.0915 0.5964999999999998 Q 0.055 0.5359999999999998 0.052000000000000005 0.44999999999999984 Q 0.051000000000000004 0.40699999999999986 0.051000000000000004 0.3579999999999999 Q 0.051000000000000004 0.30899999999999983 0.052000000000000005 0.26499999999999985 Q 0.055 0.18099999999999983 0.0915 0.12199999999999989 Q 0.128 0.06299999999999983 0.1955 0.03149999999999986 Q 0.263 -1.1102230246251565e-16 0.355 -1.1102230246251565e-16 Q 0.429 -1.1102230246251565e-16 0.485 0.018999999999999795 Q 0.541 0.03799999999999981 0.579 0.0684999999999999 Q 0.617 0.09899999999999987 0.637 0.1349999999999998 Q 0.657 0.17099999999999982 0.658 0.20399999999999985 Q 0.658 0.21299999999999986 0.652 0.21949999999999986 Q 0.646 0.22599999999999987 0.636 0.22599999999999987 L 0.512 0.22599999999999987 Q 0.502 0.22599999999999987 0.4965 0.22199999999999986 Q 0.491 0.21799999999999986 0.487 0.20999999999999985 Q 0.48 0.19199999999999984 0.4645 0.17349999999999988 Q 0.449 0.1549999999999998 0.423 0.1419999999999998 Q 0.397 0.1289999999999999 0.355 0.1289999999999999 Q 0.292 0.1289999999999999 0.2555 0.1619999999999998 Q 0.219 0.19499999999999984 0.216 0.26999999999999985 Q 0.213 0.35599999999999987 0.216 0.44499999999999984 Q 0.219 0.5229999999999999 0.2565 0.5569999999999998 Q 0.294 0.5909999999999999 0.357 0.5909999999999999 Q 0.398 0.5909999999999999 0.4305 0.5764999999999998 Q 0.463 0.5619999999999998 0.482 0.5309999999999999 Q 0.501 0.4999999999999999 0.501 0.45199999999999985 L 0.501 0.4269999999999998 L 0.392 0.4269999999999998 Q 0.382 0.4269999999999998 0.375 0.4194999999999999 Q 0.368 0.41199999999999987 0.368 0.40199999999999986 L 0.368 0.33799999999999986 Q 0.368 0.32699999999999985 0.375 0.31999999999999984 Q 0.382 0.31299999999999983 0.392 0.31299999999999983 L 0.637 0.31299999999999983 Q 0.648 0.31299999999999983 0.655 0.31999999999999984 Q 0.662 0.32699999999999985 0.662 0.33799999999999986 L 0.662 0.44699999999999984 Q 0.662 0.5329999999999999 0.6245 0.5939999999999999 Q 0.587 0.6549999999999998 0.5175 0.6874999999999999 Q 0.448 0.7199999999999999 0.355 0.7199999999999999 M 1.0620219726562499 0.7199999999999999 Q 0.97102197265625 0.7199999999999999 0.9050219726562501 0.6899999999999998 Q 0.83902197265625 0.6599999999999998 0.80202197265625 0.5994999999999998 Q 0.76502197265625 0.5389999999999998 0.76202197265625 0.44699999999999984 Q 0.76102197265625 0.40399999999999986 0.76102197265625 0.3614999999999998 Q 0.76102197265625 0.31899999999999984 0.76202197265625 0.27499999999999986 Q 0.76502197265625 0.18499999999999983 0.80252197265625 0.12349999999999983 Q 0.84002197265625 0.06199999999999983 0.90652197265625 0.030999999999999805 Q 0.97302197265625 -1.1102230246251565e-16 1.0620219726562499 -1.1102230246251565e-16 Q 1.15002197265625 -1.1102230246251565e-16 1.21652197265625 0.030999999999999805 Q 1.28302197265625 0.06199999999999983 1.32102197265625 0.12349999999999983 Q 1.35902197265625 0.18499999999999983 1.36102197265625 0.27499999999999986 Q 1.36302197265625 0.31899999999999984 1.36302197265625 0.3614999999999998 Q 1.36302197265625 0.40399999999999986 1.36102197265625 0.44699999999999984 Q 1.3580219726562501 0.5389999999999998 1.32102197265625 0.5994999999999998 Q 1.28402197265625 0.6599999999999998 1.21802197265625 0.6899999999999998 Q 1.15202197265625 0.7199999999999999 1.0620219726562499 0.7199999999999999 M 1.0620219726562499 0.5909999999999999 Q 1.1200219726562501 0.5909999999999999 1.15752197265625 0.5554999999999999 Q 1.1950219726562499 0.5199999999999998 1.19702197265625 0.44199999999999984 Q 1.1990219726562499 0.39799999999999985 1.1990219726562499 0.3594999999999998 Q 1.1990219726562499 0.32099999999999984 1.19702197265625 0.27799999999999986 Q 1.19602197265625 0.22599999999999987 1.17802197265625 0.19299999999999984 Q 1.16002197265625 0.1599999999999998 1.13052197265625 0.14449999999999985 Q 1.10102197265625 0.1289999999999999 1.0620219726562499 0.1289999999999999 Q 1.02302197265625 0.1289999999999999 0.99302197265625 0.14449999999999985 Q 0.96302197265625 0.1599999999999998 0.94552197265625 0.19299999999999984 Q 0.92802197265625 0.22599999999999987 0.92602197265625 0.27799999999999986 Q 0.92502197265625 0.32099999999999984 0.92502197265625 0.3594999999999998 Q 0.92502197265625 0.39799999999999985 0.92602197265625 0.44199999999999984 Q 0.92902197265625 0.5199999999999998 0.96602197265625 0.5554999999999999 Q 1.00302197265625 0.5909999999999999 1.0620219726562499 0.5909999999999999 M 1.51202490234375 0.7099999999999999 Q 1.50102490234375 0.7099999999999999 1.49402490234375 0.7029999999999998 Q 1.48702490234375 0.6959999999999998 1.48702490234375 0.6849999999999998 L 1.48702490234375 0.03499999999999981 Q 1.48702490234375 0.0239999999999998 1.49402490234375 0.016999999999999793 Q 1.50102490234375 0.009999999999999787 1.51202490234375 0.009999999999999787 L 1.7770249023437499 0.009999999999999787 Q 1.9020249023437499 0.009999999999999787 1.97402490234375 0.0674999999999999 Q 2.04602490234375 0.12499999999999989 2.04602490234375 0.23299999999999982 Q 2.04602490234375 0.3059999999999998 2.01102490234375 0.35499999999999987 Q 1.9760249023437502 0.40399999999999986 1.91702490234375 0.4279999999999998 L 2.05802490234375 0.6779999999999998 Q 2.06102490234375 0.6839999999999998 2.06102490234375 0.6889999999999998 Q 2.06102490234375 0.6969999999999998 2.05502490234375 0.7034999999999999 Q 2.04902490234375 0.7099999999999999 2.04002490234375 0.7099999999999999 L 1.92902490234375 0.7099999999999999 Q 1.91102490234375 0.7099999999999999 1.9020249023437499 0.7004999999999999 Q 1.89302490234375 0.6909999999999998 1.88902490234375 0.6829999999999998 L 1.76702490234375 0.45399999999999985 L 1.64602490234375 0.45399999999999985 L 1.64602490234375 0.6849999999999998 Q 1.64602490234375 0.6959999999999998 1.63902490234375 0.7029999999999998 Q 1.63202490234375 0.7099999999999999 1.62102490234375 0.7099999999999999 L 1.51202490234375 0.7099999999999999 M 1.64602490234375 0.32699999999999985 L 1.77402490234375 0.32699999999999985 Q 1.82902490234375 0.32699999999999985 1.85552490234375 0.3019999999999998 Q 1.88202490234375 0.27699999999999986 1.88202490234375 0.23199999999999982 Q 1.88202490234375 0.18699999999999983 1.85602490234375 0.1609999999999998 Q 1.83002490234375 0.1349999999999998 1.77402490234375 0.1349999999999998 L 1.64602490234375 0.1349999999999998 L 1.64602490234375 0.32699999999999985 M 2.19403173828125 0.7099999999999999 Q 2.18303173828125 0.7099999999999999 2.17603173828125 0.7029999999999998 Q 2.16903173828125 0.6959999999999998 2.16903173828125 0.6849999999999998 L 2.16903173828125 0.03499999999999981 Q 2.16903173828125 0.0239999999999998 2.17603173828125 0.016999999999999793 Q 2.18303173828125 0.009999999999999787 2.19403173828125 0.009999999999999787 L 2.44503173828125 0.009999999999999787 Q 2.54503173828125 0.009999999999999787 2.61203173828125 0.04149999999999987 Q 2.67903173828125 0.07299999999999984 2.71453173828125 0.13349999999999984 Q 2.7500317382812502 0.19399999999999984 2.75203173828125 0.28299999999999986 Q 2.75303173828125 0.32699999999999985 2.75303173828125 0.3599999999999998 Q 2.75303173828125 0.39299999999999985 2.75203173828125 0.43599999999999983 Q 2.74903173828125 0.5289999999999999 2.71503173828125 0.5899999999999999 Q 2.68103173828125 0.6509999999999998 2.61503173828125 0.6804999999999999 Q 2.54903173828125 0.7099999999999999 2.45003173828125 0.7099999999999999 L 2.19403173828125 0.7099999999999999 M 2.32803173828125 0.5809999999999998 L 2.44503173828125 0.5809999999999998 Q 2.49503173828125 0.5809999999999998 2.52703173828125 0.5659999999999998 Q 2.55903173828125 0.5509999999999998 2.57453173828125 0.5184999999999998 Q 2.59003173828125 0.4859999999999999 2.59103173828125 0.43399999999999983 Q 2.59203173828125 0.40499999999999986 2.59253173828125 0.38199999999999984 Q 2.59303173828125 0.3589999999999998 2.59253173828125 0.33599999999999985 Q 2.59203173828125 0.31299999999999983 2.59103173828125 0.28499999999999986 Q 2.5890317382812498 0.20999999999999985 2.55253173828125 0.17449999999999988 Q 2.51603173828125 0.1389999999999998 2.44003173828125 0.1389999999999998 L 2.32803173828125 0.1389999999999998 L 2.32803173828125 0.5809999999999998 M 3.15601611328125 0.7199999999999999 Q 3.06501611328125 0.7199999999999999 2.99901611328125 0.6899999999999998 Q 2.93301611328125 0.6599999999999998 2.89601611328125 0.5994999999999998 Q 2.85901611328125 0.5389999999999998 2.85601611328125 0.44699999999999984 Q 2.85501611328125 0.40399999999999986 2.85501611328125 0.3614999999999998 Q 2.85501611328125 0.31899999999999984 2.85601611328125 0.27499999999999986 Q 2.85901611328125 0.18499999999999983 2.89651611328125 0.12349999999999983 Q 2.93401611328125 0.06199999999999983 3.00051611328125 0.030999999999999805 Q 3.06701611328125 -1.1102230246251565e-16 3.15601611328125 -1.1102230246251565e-16 Q 3.24401611328125 -1.1102230246251565e-16 3.31051611328125 0.030999999999999805 Q 3.37701611328125 0.06199999999999983 3.4150161132812498 0.12349999999999983 Q 3.45301611328125 0.18499999999999983 3.45501611328125 0.27499999999999986 Q 3.45701611328125 0.31899999999999984 3.45701611328125 0.3614999999999998 Q 3.45701611328125 0.40399999999999986 3.45501611328125 0.44699999999999984 Q 3.45201611328125 0.5389999999999998 3.4150161132812498 0.5994999999999998 Q 3.37801611328125 0.6599999999999998 3.31201611328125 0.6899999999999998 Q 3.24601611328125 0.7199999999999999 3.15601611328125 0.7199999999999999 M 3.15601611328125 0.5909999999999999 Q 3.21401611328125 0.5909999999999999 3.25151611328125 0.5554999999999999 Q 3.28901611328125 0.5199999999999998 3.29101611328125 0.44199999999999984 Q 3.29301611328125 0.39799999999999985 3.29301611328125 0.3594999999999998 Q 3.29301611328125 0.32099999999999984 3.29101611328125 0.27799999999999986 Q 3.2900161132812498 0.22599999999999987 3.27201611328125 0.19299999999999984 Q 3.25401611328125 0.1599999999999998 3.22451611328125 0.14449999999999985 Q 3.19501611328125 0.1289999999999999 3.15601611328125 0.1289999999999999 Q 3.11701611328125 0.1289999999999999 3.08701611328125 0.14449999999999985 Q 3.05701611328125 0.1599999999999998 3.03951611328125 0.19299999999999984 Q 3.02201611328125 0.22599999999999987 3.02001611328125 0.27799999999999986 Q 3.01901611328125 0.32099999999999984 3.01901611328125 0.3594999999999998 Q 3.01901611328125 0.39799999999999985 3.02001611328125 0.44199999999999984 Q 3.02301611328125 0.5199999999999998 3.0600161132812502 0.5554999999999999 Q 3.09701611328125 0.5909999999999999 3.15601611328125 0.5909999999999999" fill="#f9f9f9" fill-rule="nonzero"></path></g><g><path d=" M 5.013019042968749 0.7099999999999999 Q 5.0030190429687496 0.7099999999999999 4.995519042968749 0.7029999999999998 Q 4.988019042968749 0.6959999999999998 4.988019042968749 0.6849999999999998 L 4.988019042968749 0.03499999999999981 Q 4.988019042968749 0.0239999999999998 4.995519042968749 0.016999999999999793 Q 5.0030190429687496 0.009999999999999787 5.013019042968749 0.009999999999999787 L 5.106019042968749 0.009999999999999787 Q 5.121019042968749 0.009999999999999787 5.128519042968749 0.017999999999999794 Q 5.13601904296875 0.0259999999999998 5.139019042968749 0.029999999999999805 L 5.323019042968749 0.36899999999999983 L 5.509019042968749 0.029999999999999805 Q 5.51101904296875 0.0259999999999998 5.518519042968749 0.017999999999999794 Q 5.526019042968749 0.009999999999999787 5.541019042968749 0.009999999999999787 L 5.634019042968749 0.009999999999999787 Q 5.645019042968749 0.009999999999999787 5.65201904296875 0.016999999999999793 Q 5.659019042968749 0.0239999999999998 5.659019042968749 0.03499999999999981 L 5.659019042968749 0.6849999999999998 Q 5.659019042968749 0.6959999999999998 5.65201904296875 0.7029999999999998 Q 5.645019042968749 0.7099999999999999 5.634019042968749 0.7099999999999999 L 5.5320190429687495 0.7099999999999999 Q 5.522019042968749 0.7099999999999999 5.515019042968749 0.7029999999999998 Q 5.5080190429687494 0.6959999999999998 5.5080190429687494 0.6849999999999998 L 5.5080190429687494 0.28099999999999986 L 5.381019042968749 0.5189999999999999 Q 5.376019042968749 0.5279999999999998 5.368019042968749 0.5349999999999998 Q 5.360019042968749 0.5419999999999998 5.347019042968749 0.5419999999999998 L 5.300019042968749 0.5419999999999998 Q 5.287019042968749 0.5419999999999998 5.279019042968749 0.5349999999999998 Q 5.271019042968749 0.5279999999999998 5.2660190429687495 0.5189999999999999 L 5.139019042968749 0.28099999999999986 L 5.139019042968749 0.6849999999999998 Q 5.139019042968749 0.6959999999999998 5.132019042968749 0.7029999999999998 Q 5.125019042968749 0.7099999999999999 5.115019042968749 0.7099999999999999 L 5.013019042968749 0.7099999999999999 M 5.831988769531249 0.7099999999999999 Q 5.820988769531249 0.7099999999999999 5.8139887695312495 0.7029999999999998 Q 5.806988769531249 0.6959999999999998 5.806988769531249 0.6849999999999998 L 5.806988769531249 0.03499999999999981 Q 5.806988769531249 0.0239999999999998 5.8139887695312495 0.016999999999999793 Q 5.820988769531249 0.009999999999999787 5.831988769531249 0.009999999999999787 L 5.944988769531249 0.009999999999999787 Q 5.955988769531249 0.009999999999999787 5.96298876953125 0.016999999999999793 Q 5.969988769531249 0.0239999999999998 5.969988769531249 0.03499999999999981 L 5.969988769531249 0.6849999999999998 Q 5.969988769531249 0.6959999999999998 5.96298876953125 0.7029999999999998 Q 5.955988769531249 0.7099999999999999 5.944988769531249 0.7099999999999999 L 5.831988769531249 0.7099999999999999 M 6.142962890624999 0.7099999999999999 Q 6.131962890624999 0.7099999999999999 6.1249628906249995 0.7029999999999998 Q 6.117962890624999 0.6959999999999998 6.117962890624999 0.6849999999999998 L 6.117962890624999 0.03499999999999981 Q 6.117962890624999 0.0239999999999998 6.1249628906249995 0.016999999999999793 Q 6.131962890624999 0.009999999999999787 6.142962890624999 0.009999999999999787 L 6.248962890624999 0.009999999999999787 Q 6.259962890624999 0.009999999999999787 6.266962890624999 0.016999999999999793 Q 6.273962890625 0.0239999999999998 6.273962890625 0.03499999999999981 L 6.273962890625 0.26299999999999985 L 6.479962890624999 0.028999999999999804 Q 6.4839628906249995 0.0229999999999998 6.493462890624999 0.016499999999999848 Q 6.502962890624999 0.009999999999999787 6.518962890624999 0.009999999999999787 L 6.639962890624999 0.009999999999999787 Q 6.648962890624999 0.009999999999999787 6.654962890624999 0.016499999999999848 Q 6.660962890624999 0.0229999999999998 6.660962890624999 0.030999999999999805 Q 6.660962890624999 0.03799999999999981 6.656962890625 0.042999999999999816 L 6.399962890624999 0.34499999999999986 L 6.675962890624999 0.6769999999999998 Q 6.679962890624999 0.6809999999999998 6.679962890624999 0.6889999999999998 Q 6.679962890624999 0.6969999999999998 6.673962890624999 0.7034999999999999 Q 6.667962890624999 0.7099999999999999 6.658962890624999 0.7099999999999999 L 6.533962890624999 0.7099999999999999 Q 6.515962890625 0.7099999999999999 6.506962890624999 0.7019999999999998 Q 6.497962890624999 0.6939999999999998 6.494962890624999 0.6909999999999998 L 6.273962890625 0.43499999999999983 L 6.273962890625 0.6849999999999998 Q 6.273962890625 0.6959999999999998 6.266962890624999 0.7029999999999998 Q 6.259962890624999 0.7099999999999999 6.248962890624999 0.7099999999999999 L 6.142962890624999 0.7099999999999999 M 6.789935546874999 0.7099999999999999 Q 6.778935546874999 0.7099999999999999 6.7719355468749995 0.7029999999999998 Q 6.764935546874999 0.6959999999999998 6.764935546874999 0.6849999999999998 L 6.764935546874999 0.03499999999999981 Q 6.764935546874999 0.0239999999999998 6.7719355468749995 0.016999999999999793 Q 6.778935546874999 0.009999999999999787 6.789935546874999 0.009999999999999787 L 7.242935546875 0.009999999999999787 Q 7.253935546874999 0.009999999999999787 7.260935546874999 0.016999999999999793 Q 7.267935546874999 0.0239999999999998 7.267935546874999 0.03499999999999981 L 7.267935546874999 0.11499999999999988 Q 7.267935546874999 0.12499999999999989 7.260935546874999 0.1319999999999999 Q 7.253935546874999 0.1389999999999998 7.242935546875 0.1389999999999998 L 6.918935546874999 0.1389999999999998 L 6.918935546874999 0.2959999999999998 L 7.220935546874999 0.2959999999999998 Q 7.2319355468749995 0.2959999999999998 7.238935546874999 0.3029999999999998 Q 7.245935546874999 0.30999999999999983 7.245935546874999 0.32099999999999984 L 7.245935546874999 0.39499999999999985 Q 7.245935546874999 0.40499999999999986 7.238935546874999 0.41199999999999987 Q 7.2319355468749995 0.4189999999999999 7.220935546874999 0.4189999999999999 L 6.918935546874999 0.4189999999999999 L 6.918935546874999 0.5809999999999998 L 7.250935546874999 0.5809999999999998 Q 7.261935546874999 0.5809999999999998 7.268935546874999 0.5879999999999999 Q 7.275935546874999 0.5949999999999999 7.275935546874999 0.6059999999999999 L 7.275935546874999 0.6849999999999998 Q 7.275935546874999 0.6959999999999998 7.268935546874999 0.7029999999999998 Q 7.261935546874999 0.7099999999999999 7.250935546874999 0.7099999999999999 L 6.789935546874999 0.7099999999999999 M 7.646940429687499 0.7199999999999999 Q 7.5509404296875 0.7199999999999999 7.486440429687499 0.6919999999999998 Q 7.421940429687499 0.6639999999999998 7.388940429687499 0.6189999999999999 Q 7.355940429687499 0.5739999999999998 7.3539404296874995 0.5229999999999999 Q 7.3539404296874995 0.5149999999999999 7.359940429687499 0.5084999999999998 Q 7.365940429687499 0.5019999999999998 7.374940429687499 0.5019999999999998 L 7.481940429687499 0.5019999999999998 Q 7.4949404296874995 0.5019999999999998 7.501940429687499 0.5074999999999998 Q 7.508940429687499 0.5129999999999999 7.514940429687499 0.5209999999999999 Q 7.521940429687499 0.5379999999999998 7.537440429687499 0.5539999999999998 Q 7.552940429687499 0.5699999999999998 7.5799404296874995 0.5804999999999998 Q 7.6069404296875 0.5909999999999999 7.646940429687499 0.5909999999999999 Q 7.711940429687499 0.5909999999999999 7.744440429687499 0.5699999999999998 Q 7.7769404296874995 0.5489999999999998 7.7769404296874995 0.5129999999999999 Q 7.7769404296874995 0.4869999999999999 7.7594404296874995 0.47099999999999986 Q 7.741940429687499 0.45499999999999985 7.704440429687499 0.44199999999999984 Q 7.666940429687499 0.4289999999999998 7.604940429687499 0.41399999999999987 Q 7.529940429687499 0.39799999999999985 7.4774404296874994 0.37249999999999983 Q 7.424940429687499 0.34699999999999986 7.398440429687499 0.30649999999999983 Q 7.371940429687499 0.26599999999999985 7.371940429687499 0.20599999999999985 Q 7.371940429687499 0.1459999999999998 7.404940429687499 0.09949999999999981 Q 7.437940429687499 0.052999999999999825 7.497940429687499 0.026499999999999857 Q 7.557940429687499 -1.1102230246251565e-16 7.640940429687499 -1.1102230246251565e-16 Q 7.707940429687499 -1.1102230246251565e-16 7.7594404296874995 0.017999999999999794 Q 7.810940429687499 0.03599999999999981 7.845440429687499 0.06499999999999984 Q 7.879940429687499 0.09399999999999986 7.897940429687499 0.1269999999999999 Q 7.915940429687499 0.1599999999999998 7.916940429687499 0.19099999999999984 Q 7.916940429687499 0.19899999999999984 7.910940429687499 0.2054999999999998 Q 7.904940429687499 0.21199999999999986 7.895940429687499 0.21199999999999986 L 7.783940429687499 0.21199999999999986 Q 7.773940429687499 0.21199999999999986 7.765940429687499 0.20799999999999985 Q 7.757940429687499 0.20399999999999985 7.7529404296874995 0.19399999999999984 Q 7.746940429687499 0.16799999999999982 7.717440429687499 0.14849999999999985 Q 7.687940429687499 0.1289999999999999 7.640940429687499 0.1289999999999999 Q 7.591940429687499 0.1289999999999999 7.563440429687499 0.1469999999999998 Q 7.5349404296874996 0.1649999999999998 7.5349404296874996 0.20199999999999985 Q 7.5349404296874996 0.22599999999999987 7.5494404296874995 0.24249999999999983 Q 7.5639404296874995 0.25899999999999984 7.598440429687499 0.27149999999999985 Q 7.632940429687499 0.28399999999999986 7.689940429687499 0.2989999999999998 Q 7.777940429687499 0.31699999999999984 7.832940429687499 0.34199999999999986 Q 7.887940429687499 0.3669999999999998 7.913940429687499 0.40649999999999986 Q 7.939940429687499 0.44599999999999984 7.939940429687499 0.5059999999999998 Q 7.939940429687499 0.5729999999999998 7.902440429687499 0.6209999999999999 Q 7.864940429687499 0.6689999999999998 7.7994404296874995 0.6944999999999999 Q 7.733940429687499 0.7199999999999999 7.646940429687499 0.7199999999999999" fill="#f9f9f9" fill-rule="nonzero"></path></g><g></g></g><defs><clipPath id="SvgjsClipPath1002"><path d=" M 3.60701904296875 -0.24349999999999988 h 1.2069999999999996 v 1.2069999999999996 h -1.2069999999999996 Z"></path></clipPath><clipPath id="SvgjsClipPath100069b963c0-95ad-4b7a-a1d8-4400ccb5e5af"><path d=" M 3.60701904296875 -0.24349999999999988 L 4.8140190429687495 -0.24349999999999988 L 4.8140190429687495 0.9634999999999998 L 3.60701904296875 0.9634999999999998 Z"></path></clipPath></defs></svg>