<svg xmlns="http://www.w3.org/2000/svg" version="1.1" xmlns:xlink="http://www.w3.org/1999/xlink" viewBox="0 0 8.783847234507808 2.8729292657578087"><g transform="matrix(1,0,0,1,0.40546463287890466,0.6489646328789043)"><rect width="8.783847234507808" height="8.783847234507808" x="-0.40546463287890466" y="-3.6044236172539046" fill="#343432"></rect><g clip-path="url(#SvgjsClipPath1002)"><g clip-path="url(#SvgjsClipPath1000173b83ea-4b56-4415-a9b2-45a1ca78ad08)"><path d=" M 3.7277431347851175 -0.24349999999999988 L 4.6932949511523825 -0.24349999999999988 C 4.759969032056366 -0.24349999999999988 4.8140190429687495 -0.18944998908761668 4.8140190429687495 -0.12277590818363264 L 4.8140190429687495 0.8427759081836326 C 4.8140190429687495 0.9094499890876164 4.759969032056366 0.9634999999999998 4.6932949511523825 0.9634999999999998 L 3.7277431347851175 0.9634999999999998 C 3.6610690538811332 0.9634999999999998 3.60701904296875 0.9094499890876164 3.60701904296875 0.8427759081836326 L 3.60701904296875 -0.12277590818363264 C 3.60701904296875 -0.18944998908761668 3.6610690538811332 -0.24349999999999988 3.7277431347851175 -0.24349999999999988 Z" fill="#d1082a" transform="matrix(1,0,0,1,0,0)" fill-rule="nonzero"></path></g><g clip-path="url(#SvgjsClipPath1000173b83ea-4b56-4415-a9b2-45a1ca78ad08)"><path d=" M 3.970002409568883 0.1676669993346641 L 3.970002409568883 0.4921034597471721 C 3.970002409568883 0.5179861011310711 3.979775656408537 0.5348182501663341 3.987846414891571 0.543860711909514 C 4.005690420214259 0.5638488888888884 4.013721025670014 0.5697353226879569 4.081804498723907 0.6024841317365266 C 4.084791883953447 0.6655243845642047 4.087955942503015 0.7594824683965398 4.090300879296095 0.7977643646041246 C 4.092645816089176 0.8360462608117094 4.127442429528963 0.8480921689953425 4.137344166055909 0.8480921689953425 L 4.283774225936148 0.8480921689953425 C 4.2936759624630945 0.8480921689953425 4.3284725759028815 0.8360462608117094 4.330817512695962 0.7977643646041246 C 4.333162449489042 0.7594824683965398 4.33632650803861 0.6655243845642047 4.339313893268151 0.6024841317365266 C 4.407357213294764 0.5696951696606785 4.415387818750519 0.56380873586161 4.433271977100486 0.543860711909514 C 4.441302582556241 0.5348182501663337 4.451115982423174 0.5179861011310711 4.451115982423174 0.4921034597471721 L 4.451115982423174 0.1676669993346641 L 3.970002409568883 0.1676669993346641 Z" fill="#ffffff" transform="matrix(1,0,0,1,0,0)" fill-rule="nonzero"></path></g><g clip-path="url(#SvgjsClipPath1000173b83ea-4b56-4415-a9b2-45a1ca78ad08)"><path d=" M 3.863596887280127 0.4147446373918829 L 3.9199476457631612 0.4147446373918829 L 3.9199476457631612 0.31730930139720576 L 3.757729415556907 0.31730930139720576 C 3.7706667209461284 0.3839633266799734 3.827595683021977 0.4147446373918829 3.863596887280127 0.4147446373918829 Z" fill="#ffffff" transform="matrix(1,0,0,1,0,0)" fill-rule="nonzero"></path></g><g clip-path="url(#SvgjsClipPath1000173b83ea-4b56-4415-a9b2-45a1ca78ad08)"><path d=" M 3.91887154463209 0.2656403858948769 L 3.91887154463209 0.1676669993346641 C 3.8859460622634936 0.16606087824351295 3.862392296461764 0.13742373918829004 3.862392296461764 0.07264084497671341 C 3.862392296461764 0.007857950765136568 3.876044325736548 -0.06093221556886197 3.910840939176335 -0.1286623419827011 C 3.830269874638743 -0.09144851630073184 3.767366142103813 -0.002308795741849584 3.767366142103813 0.1130588822355289 C 3.767366142103813 0.19149380572188962 3.8313379451643588 0.2656403858948769 3.91887154463209 0.2656403858948769 Z" fill="#ffffff" transform="matrix(1,0,0,1,0,0)" fill-rule="nonzero"></path></g><g clip-path="url(#SvgjsClipPath1000173b83ea-4b56-4415-a9b2-45a1ca78ad08)"><path d=" M 4.501090440174338 0.31730930139720576 L 4.501090440174338 0.4147446373918829 L 4.557441198657372 0.4147446373918829 C 4.593442402915523 0.4147446373918829 4.650371364991371 0.3839633266799734 4.663308670380593 0.31730930139720576 Z" fill="#ffffff" transform="matrix(1,0,0,1,0,0)" fill-rule="nonzero"></path></g><g clip-path="url(#SvgjsClipPath1000173b83ea-4b56-4415-a9b2-45a1ca78ad08)"><path d=" M 4.653671943833686 0.1130588822355289 C 4.653671943833686 -0.002308795741849584 4.590768211298757 -0.09144851630073184 4.510197146761165 -0.1286623419827011 C 4.544993760200952 -0.06093221556886219 4.558645789475736 0.007857950765136346 4.558645789475736 0.07264084497671341 C 4.558645789475736 0.13742373918829026 4.5350920236740055 0.16606087824351295 4.502166541305409 0.1676669993346641 L 4.502166541305409 0.2656403858948769 C 4.589700140773141 0.2656403858948769 4.653671943833686 0.19149380572188962 4.653671943833686 0.1130588822355289 Z" fill="#ffffff" transform="matrix(1,0,0,1,0,0)" fill-rule="nonzero"></path></g></g><g><path d=" M 0.355 0.7199999999999999 Q 0.261 0.7199999999999999 0.1945 0.6884999999999999 Q 0.128 0.6569999999999998 0.0915 0.5964999999999998 Q 0.055 0.5359999999999998 0.052000000000000005 0.44999999999999984 Q 0.051000000000000004 0.40699999999999986 0.051000000000000004 0.3579999999999999 Q 0.051000000000000004 0.30899999999999983 0.052000000000000005 0.26499999999999985 Q 0.055 0.18099999999999983 0.0915 0.12199999999999989 Q 0.128 0.06299999999999983 0.1955 0.03149999999999986 Q 0.263 -1.1102230246251565e-16 0.355 -1.1102230246251565e-16 Q 0.429 -1.1102230246251565e-16 0.485 0.018999999999999795 Q 0.541 0.03799999999999981 0.579 0.0684999999999999 Q 0.617 0.09899999999999987 0.637 0.1349999999999998 Q 0.657 0.17099999999999982 0.658 0.20399999999999985 Q 0.658 0.21299999999999986 0.652 0.21949999999999986 Q 0.646 0.22599999999999987 0.636 0.22599999999999987 L 0.512 0.22599999999999987 Q 0.502 0.22599999999999987 0.4965 0.22199999999999986 Q 0.491 0.21799999999999986 0.487 0.20999999999999985 Q 0.48 0.19199999999999984 0.4645 0.17349999999999988 Q 0.449 0.1549999999999998 0.423 0.1419999999999998 Q 0.397 0.1289999999999999 0.355 0.1289999999999999 Q 0.292 0.1289999999999999 0.2555 0.1619999999999998 Q 0.219 0.19499999999999984 0.216 0.26999999999999985 Q 0.213 0.35599999999999987 0.216 0.44499999999999984 Q 0.219 0.5229999999999999 0.2565 0.5569999999999998 Q 0.294 0.5909999999999999 0.357 0.5909999999999999 Q 0.398 0.5909999999999999 0.4305 0.5764999999999998 Q 0.463 0.5619999999999998 0.482 0.5309999999999999 Q 0.501 0.4999999999999999 0.501 0.45199999999999985 L 0.501 0.4269999999999998 L 0.392 0.4269999999999998 Q 0.382 0.4269999999999998 0.375 0.4194999999999999 Q 0.368 0.41199999999999987 0.368 0.40199999999999986 L 0.368 0.33799999999999986 Q 0.368 0.32699999999999985 0.375 0.31999999999999984 Q 0.382 0.31299999999999983 0.392 0.31299999999999983 L 0.637 0.31299999999999983 Q 0.648 0.31299999999999983 0.655 0.31999999999999984 Q 0.662 0.32699999999999985 0.662 0.33799999999999986 L 0.662 0.44699999999999984 Q 0.662 0.5329999999999999 0.6245 0.5939999999999999 Q 0.587 0.6549999999999998 0.5175 0.6874999999999999 Q 0.448 0.7199999999999999 0.355 0.7199999999999999 M 1.0620219726562499 0.7199999999999999 Q 0.97102197265625 0.7199999999999999 0.9050219726562501 0.6899999999999998 Q 0.83902197265625 0.6599999999999998 0.80202197265625 0.5994999999999998 Q 0.76502197265625 0.5389999999999998 0.76202197265625 0.44699999999999984 Q 0.76102197265625 0.40399999999999986 0.76102197265625 0.3614999999999998 Q 0.76102197265625 0.31899999999999984 0.76202197265625 0.27499999999999986 Q 0.76502197265625 0.18499999999999983 0.80252197265625 0.12349999999999983 Q 0.84002197265625 0.06199999999999983 0.90652197265625 0.030999999999999805 Q 0.97302197265625 -1.1102230246251565e-16 1.0620219726562499 -1.1102230246251565e-16 Q 1.15002197265625 -1.1102230246251565e-16 1.21652197265625 0.030999999999999805 Q 1.28302197265625 0.06199999999999983 1.32102197265625 0.12349999999999983 Q 1.35902197265625 0.18499999999999983 1.36102197265625 0.27499999999999986 Q 1.36302197265625 0.31899999999999984 1.36302197265625 0.3614999999999998 Q 1.36302197265625 0.40399999999999986 1.36102197265625 0.44699999999999984 Q 1.3580219726562501 0.5389999999999998 1.32102197265625 0.5994999999999998 Q 1.28402197265625 0.6599999999999998 1.21802197265625 0.6899999999999998 Q 1.15202197265625 0.7199999999999999 1.0620219726562499 0.7199999999999999 M 1.0620219726562499 0.5909999999999999 Q 1.1200219726562501 0.5909999999999999 1.15752197265625 0.5554999999999999 Q 1.1950219726562499 0.5199999999999998 1.19702197265625 0.44199999999999984 Q 1.1990219726562499 0.39799999999999985 1.1990219726562499 0.3594999999999998 Q 1.1990219726562499 0.32099999999999984 1.19702197265625 0.27799999999999986 Q 1.19602197265625 0.22599999999999987 1.17802197265625 0.19299999999999984 Q 1.16002197265625 0.1599999999999998 1.13052197265625 0.14449999999999985 Q 1.10102197265625 0.1289999999999999 1.0620219726562499 0.1289999999999999 Q 1.02302197265625 0.1289999999999999 0.99302197265625 0.14449999999999985 Q 0.96302197265625 0.1599999999999998 0.94552197265625 0.19299999999999984 Q 0.92802197265625 0.22599999999999987 0.92602197265625 0.27799999999999986 Q 0.92502197265625 0.32099999999999984 0.92502197265625 0.3594999999999998 Q 0.92502197265625 0.39799999999999985 0.92602197265625 0.44199999999999984 Q 0.92902197265625 0.5199999999999998 0.96602197265625 0.5554999999999999 Q 1.00302197265625 0.5909999999999999 1.0620219726562499 0.5909999999999999 M 1.51202490234375 0.7099999999999999 Q 1.50102490234375 0.7099999999999999 1.49402490234375 0.7029999999999998 Q 1.48702490234375 0.6959999999999998 1.48702490234375 0.6849999999999998 L 1.48702490234375 0.03499999999999981 Q 1.48702490234375 0.0239999999999998 1.49402490234375 0.016999999999999793 Q 1.50102490234375 0.009999999999999787 1.51202490234375 0.009999999999999787 L 1.7770249023437499 0.009999999999999787 Q 1.9020249023437499 0.009999999999999787 1.97402490234375 0.0674999999999999 Q 2.04602490234375 0.12499999999999989 2.04602490234375 0.23299999999999982 Q 2.04602490234375 0.3059999999999998 2.01102490234375 0.35499999999999987 Q 1.9760249023437502 0.40399999999999986 1.91702490234375 0.4279999999999998 L 2.05802490234375 0.6779999999999998 Q 2.06102490234375 0.6839999999999998 2.06102490234375 0.6889999999999998 Q 2.06102490234375 0.6969999999999998 2.05502490234375 0.7034999999999999 Q 2.04902490234375 0.7099999999999999 2.04002490234375 0.7099999999999999 L 1.92902490234375 0.7099999999999999 Q 1.91102490234375 0.7099999999999999 1.9020249023437499 0.7004999999999999 Q 1.89302490234375 0.6909999999999998 1.88902490234375 0.6829999999999998 L 1.76702490234375 0.45399999999999985 L 1.64602490234375 0.45399999999999985 L 1.64602490234375 0.6849999999999998 Q 1.64602490234375 0.6959999999999998 1.63902490234375 0.7029999999999998 Q 1.63202490234375 0.7099999999999999 1.62102490234375 0.7099999999999999 L 1.51202490234375 0.7099999999999999 M 1.64602490234375 0.32699999999999985 L 1.77402490234375 0.32699999999999985 Q 1.82902490234375 0.32699999999999985 1.85552490234375 0.3019999999999998 Q 1.88202490234375 0.27699999999999986 1.88202490234375 0.23199999999999982 Q 1.88202490234375 0.18699999999999983 1.85602490234375 0.1609999999999998 Q 1.83002490234375 0.1349999999999998 1.77402490234375 0.1349999999999998 L 1.64602490234375 0.1349999999999998 L 1.64602490234375 0.32699999999999985 M 2.19403173828125 0.7099999999999999 Q 2.18303173828125 0.7099999999999999 2.17603173828125 0.7029999999999998 Q 2.16903173828125 0.6959999999999998 2.16903173828125 0.6849999999999998 L 2.16903173828125 0.03499999999999981 Q 2.16903173828125 0.0239999999999998 2.17603173828125 0.016999999999999793 Q 2.18303173828125 0.009999999999999787 2.19403173828125 0.009999999999999787 L 2.44503173828125 0.009999999999999787 Q 2.54503173828125 0.009999999999999787 2.61203173828125 0.04149999999999987 Q 2.67903173828125 0.07299999999999984 2.71453173828125 0.13349999999999984 Q 2.7500317382812502 0.19399999999999984 2.75203173828125 0.28299999999999986 Q 2.75303173828125 0.32699999999999985 2.75303173828125 0.3599999999999998 Q 2.75303173828125 0.39299999999999985 2.75203173828125 0.43599999999999983 Q 2.74903173828125 0.5289999999999999 2.71503173828125 0.5899999999999999 Q 2.68103173828125 0.6509999999999998 2.61503173828125 0.6804999999999999 Q 2.54903173828125 0.7099999999999999 2.45003173828125 0.7099999999999999 L 2.19403173828125 0.7099999999999999 M 2.32803173828125 0.5809999999999998 L 2.44503173828125 0.5809999999999998 Q 2.49503173828125 0.5809999999999998 2.52703173828125 0.5659999999999998 Q 2.55903173828125 0.5509999999999998 2.57453173828125 0.5184999999999998 Q 2.59003173828125 0.4859999999999999 2.59103173828125 0.43399999999999983 Q 2.59203173828125 0.40499999999999986 2.59253173828125 0.38199999999999984 Q 2.59303173828125 0.3589999999999998 2.59253173828125 0.33599999999999985 Q 2.59203173828125 0.31299999999999983 2.59103173828125 0.28499999999999986 Q 2.5890317382812498 0.20999999999999985 2.55253173828125 0.17449999999999988 Q 2.51603173828125 0.1389999999999998 2.44003173828125 0.1389999999999998 L 2.32803173828125 0.1389999999999998 L 2.32803173828125 0.5809999999999998 M 3.15601611328125 0.7199999999999999 Q 3.06501611328125 0.7199999999999999 2.99901611328125 0.6899999999999998 Q 2.93301611328125 0.6599999999999998 2.89601611328125 0.5994999999999998 Q 2.85901611328125 0.5389999999999998 2.85601611328125 0.44699999999999984 Q 2.85501611328125 0.40399999999999986 2.85501611328125 0.3614999999999998 Q 2.85501611328125 0.31899999999999984 2.85601611328125 0.27499999999999986 Q 2.85901611328125 0.18499999999999983 2.89651611328125 0.12349999999999983 Q 2.93401611328125 0.06199999999999983 3.00051611328125 0.030999999999999805 Q 3.06701611328125 -1.1102230246251565e-16 3.15601611328125 -1.1102230246251565e-16 Q 3.24401611328125 -1.1102230246251565e-16 3.31051611328125 0.030999999999999805 Q 3.37701611328125 0.06199999999999983 3.4150161132812498 0.12349999999999983 Q 3.45301611328125 0.18499999999999983 3.45501611328125 0.27499999999999986 Q 3.45701611328125 0.31899999999999984 3.45701611328125 0.3614999999999998 Q 3.45701611328125 0.40399999999999986 3.45501611328125 0.44699999999999984 Q 3.45201611328125 0.5389999999999998 3.4150161132812498 0.5994999999999998 Q 3.37801611328125 0.6599999999999998 3.31201611328125 0.6899999999999998 Q 3.24601611328125 0.7199999999999999 3.15601611328125 0.7199999999999999 M 3.15601611328125 0.5909999999999999 Q 3.21401611328125 0.5909999999999999 3.25151611328125 0.5554999999999999 Q 3.28901611328125 0.5199999999999998 3.29101611328125 0.44199999999999984 Q 3.29301611328125 0.39799999999999985 3.29301611328125 0.3594999999999998 Q 3.29301611328125 0.32099999999999984 3.29101611328125 0.27799999999999986 Q 3.2900161132812498 0.22599999999999987 3.27201611328125 0.19299999999999984 Q 3.25401611328125 0.1599999999999998 3.22451611328125 0.14449999999999985 Q 3.19501611328125 0.1289999999999999 3.15601611328125 0.1289999999999999 Q 3.11701611328125 0.1289999999999999 3.08701611328125 0.14449999999999985 Q 3.05701611328125 0.1599999999999998 3.03951611328125 0.19299999999999984 Q 3.02201611328125 0.22599999999999987 3.02001611328125 0.27799999999999986 Q 3.01901611328125 0.32099999999999984 3.01901611328125 0.3594999999999998 Q 3.01901611328125 0.39799999999999985 3.02001611328125 0.44199999999999984 Q 3.02301611328125 0.5199999999999998 3.0600161132812502 0.5554999999999999 Q 3.09701611328125 0.5909999999999999 3.15601611328125 0.5909999999999999" fill="#f9f9f9" fill-rule="nonzero"></path></g><g><path d=" M 5.013019042968749 0.7099999999999999 Q 5.0030190429687496 0.7099999999999999 4.995519042968749 0.7029999999999998 Q 4.988019042968749 0.6959999999999998 4.988019042968749 0.6849999999999998 L 4.988019042968749 0.03499999999999981 Q 4.988019042968749 0.0239999999999998 4.995519042968749 0.016999999999999793 Q 5.0030190429687496 0.009999999999999787 5.013019042968749 0.009999999999999787 L 5.106019042968749 0.009999999999999787 Q 5.121019042968749 0.009999999999999787 5.128519042968749 0.017999999999999794 Q 5.13601904296875 0.0259999999999998 5.139019042968749 0.029999999999999805 L 5.323019042968749 0.36899999999999983 L 5.509019042968749 0.029999999999999805 Q 5.51101904296875 0.0259999999999998 5.518519042968749 0.017999999999999794 Q 5.526019042968749 0.009999999999999787 5.541019042968749 0.009999999999999787 L 5.634019042968749 0.009999999999999787 Q 5.645019042968749 0.009999999999999787 5.65201904296875 0.016999999999999793 Q 5.659019042968749 0.0239999999999998 5.659019042968749 0.03499999999999981 L 5.659019042968749 0.6849999999999998 Q 5.659019042968749 0.6959999999999998 5.65201904296875 0.7029999999999998 Q 5.645019042968749 0.7099999999999999 5.634019042968749 0.7099999999999999 L 5.5320190429687495 0.7099999999999999 Q 5.522019042968749 0.7099999999999999 5.515019042968749 0.7029999999999998 Q 5.5080190429687494 0.6959999999999998 5.5080190429687494 0.6849999999999998 L 5.5080190429687494 0.28099999999999986 L 5.381019042968749 0.5189999999999999 Q 5.376019042968749 0.5279999999999998 5.368019042968749 0.5349999999999998 Q 5.360019042968749 0.5419999999999998 5.347019042968749 0.5419999999999998 L 5.300019042968749 0.5419999999999998 Q 5.287019042968749 0.5419999999999998 5.279019042968749 0.5349999999999998 Q 5.271019042968749 0.5279999999999998 5.2660190429687495 0.5189999999999999 L 5.139019042968749 0.28099999999999986 L 5.139019042968749 0.6849999999999998 Q 5.139019042968749 0.6959999999999998 5.132019042968749 0.7029999999999998 Q 5.125019042968749 0.7099999999999999 5.115019042968749 0.7099999999999999 L 5.013019042968749 0.7099999999999999 M 5.831988769531249 0.7099999999999999 Q 5.820988769531249 0.7099999999999999 5.8139887695312495 0.7029999999999998 Q 5.806988769531249 0.6959999999999998 5.806988769531249 0.6849999999999998 L 5.806988769531249 0.03499999999999981 Q 5.806988769531249 0.0239999999999998 5.8139887695312495 0.016999999999999793 Q 5.820988769531249 0.009999999999999787 5.831988769531249 0.009999999999999787 L 5.944988769531249 0.009999999999999787 Q 5.955988769531249 0.009999999999999787 5.96298876953125 0.016999999999999793 Q 5.969988769531249 0.0239999999999998 5.969988769531249 0.03499999999999981 L 5.969988769531249 0.6849999999999998 Q 5.969988769531249 0.6959999999999998 5.96298876953125 0.7029999999999998 Q 5.955988769531249 0.7099999999999999 5.944988769531249 0.7099999999999999 L 5.831988769531249 0.7099999999999999 M 6.142962890624999 0.7099999999999999 Q 6.131962890624999 0.7099999999999999 6.1249628906249995 0.7029999999999998 Q 6.117962890624999 0.6959999999999998 6.117962890624999 0.6849999999999998 L 6.117962890624999 0.03499999999999981 Q 6.117962890624999 0.0239999999999998 6.1249628906249995 0.016999999999999793 Q 6.131962890624999 0.009999999999999787 6.142962890624999 0.009999999999999787 L 6.248962890624999 0.009999999999999787 Q 6.259962890624999 0.009999999999999787 6.266962890624999 0.016999999999999793 Q 6.273962890625 0.0239999999999998 6.273962890625 0.03499999999999981 L 6.273962890625 0.26299999999999985 L 6.479962890624999 0.028999999999999804 Q 6.4839628906249995 0.0229999999999998 6.493462890624999 0.016499999999999848 Q 6.502962890624999 0.009999999999999787 6.518962890624999 0.009999999999999787 L 6.639962890624999 0.009999999999999787 Q 6.648962890624999 0.009999999999999787 6.654962890624999 0.016499999999999848 Q 6.660962890624999 0.0229999999999998 6.660962890624999 0.030999999999999805 Q 6.660962890624999 0.03799999999999981 6.656962890625 0.042999999999999816 L 6.399962890624999 0.34499999999999986 L 6.675962890624999 0.6769999999999998 Q 6.679962890624999 0.6809999999999998 6.679962890624999 0.6889999999999998 Q 6.679962890624999 0.6969999999999998 6.673962890624999 0.7034999999999999 Q 6.667962890624999 0.7099999999999999 6.658962890624999 0.7099999999999999 L 6.533962890624999 0.7099999999999999 Q 6.515962890625 0.7099999999999999 6.506962890624999 0.7019999999999998 Q 6.497962890624999 0.6939999999999998 6.494962890624999 0.6909999999999998 L 6.273962890625 0.43499999999999983 L 6.273962890625 0.6849999999999998 Q 6.273962890625 0.6959999999999998 6.266962890624999 0.7029999999999998 Q 6.259962890624999 0.7099999999999999 6.248962890624999 0.7099999999999999 L 6.142962890624999 0.7099999999999999 M 6.789935546874999 0.7099999999999999 Q 6.778935546874999 0.7099999999999999 6.7719355468749995 0.7029999999999998 Q 6.764935546874999 0.6959999999999998 6.764935546874999 0.6849999999999998 L 6.764935546874999 0.03499999999999981 Q 6.764935546874999 0.0239999999999998 6.7719355468749995 0.016999999999999793 Q 6.778935546874999 0.009999999999999787 6.789935546874999 0.009999999999999787 L 7.242935546875 0.009999999999999787 Q 7.253935546874999 0.009999999999999787 7.260935546874999 0.016999999999999793 Q 7.267935546874999 0.0239999999999998 7.267935546874999 0.03499999999999981 L 7.267935546874999 0.11499999999999988 Q 7.267935546874999 0.12499999999999989 7.260935546874999 0.1319999999999999 Q 7.253935546874999 0.1389999999999998 7.242935546875 0.1389999999999998 L 6.918935546874999 0.1389999999999998 L 6.918935546874999 0.2959999999999998 L 7.220935546874999 0.2959999999999998 Q 7.2319355468749995 0.2959999999999998 7.238935546874999 0.3029999999999998 Q 7.245935546874999 0.30999999999999983 7.245935546874999 0.32099999999999984 L 7.245935546874999 0.39499999999999985 Q 7.245935546874999 0.40499999999999986 7.238935546874999 0.41199999999999987 Q 7.2319355468749995 0.4189999999999999 7.220935546874999 0.4189999999999999 L 6.918935546874999 0.4189999999999999 L 6.918935546874999 0.5809999999999998 L 7.250935546874999 0.5809999999999998 Q 7.261935546874999 0.5809999999999998 7.268935546874999 0.5879999999999999 Q 7.275935546874999 0.5949999999999999 7.275935546874999 0.6059999999999999 L 7.275935546874999 0.6849999999999998 Q 7.275935546874999 0.6959999999999998 7.268935546874999 0.7029999999999998 Q 7.261935546874999 0.7099999999999999 7.250935546874999 0.7099999999999999 L 6.789935546874999 0.7099999999999999 M 7.646940429687499 0.7199999999999999 Q 7.5509404296875 0.7199999999999999 7.486440429687499 0.6919999999999998 Q 7.421940429687499 0.6639999999999998 7.388940429687499 0.6189999999999999 Q 7.355940429687499 0.5739999999999998 7.3539404296874995 0.5229999999999999 Q 7.3539404296874995 0.5149999999999999 7.359940429687499 0.5084999999999998 Q 7.365940429687499 0.5019999999999998 7.374940429687499 0.5019999999999998 L 7.481940429687499 0.5019999999999998 Q 7.4949404296874995 0.5019999999999998 7.501940429687499 0.5074999999999998 Q 7.508940429687499 0.5129999999999999 7.514940429687499 0.5209999999999999 Q 7.521940429687499 0.5379999999999998 7.537440429687499 0.5539999999999998 Q 7.552940429687499 0.5699999999999998 7.5799404296874995 0.5804999999999998 Q 7.6069404296875 0.5909999999999999 7.646940429687499 0.5909999999999999 Q 7.711940429687499 0.5909999999999999 7.744440429687499 0.5699999999999998 Q 7.7769404296874995 0.5489999999999998 7.7769404296874995 0.5129999999999999 Q 7.7769404296874995 0.4869999999999999 7.7594404296874995 0.47099999999999986 Q 7.741940429687499 0.45499999999999985 7.704440429687499 0.44199999999999984 Q 7.666940429687499 0.4289999999999998 7.604940429687499 0.41399999999999987 Q 7.529940429687499 0.39799999999999985 7.4774404296874994 0.37249999999999983 Q 7.424940429687499 0.34699999999999986 7.398440429687499 0.30649999999999983 Q 7.371940429687499 0.26599999999999985 7.371940429687499 0.20599999999999985 Q 7.371940429687499 0.1459999999999998 7.404940429687499 0.09949999999999981 Q 7.437940429687499 0.052999999999999825 7.497940429687499 0.026499999999999857 Q 7.557940429687499 -1.1102230246251565e-16 7.640940429687499 -1.1102230246251565e-16 Q 7.707940429687499 -1.1102230246251565e-16 7.7594404296874995 0.017999999999999794 Q 7.810940429687499 0.03599999999999981 7.845440429687499 0.06499999999999984 Q 7.879940429687499 0.09399999999999986 7.897940429687499 0.1269999999999999 Q 7.915940429687499 0.1599999999999998 7.916940429687499 0.19099999999999984 Q 7.916940429687499 0.19899999999999984 7.910940429687499 0.2054999999999998 Q 7.904940429687499 0.21199999999999986 7.895940429687499 0.21199999999999986 L 7.783940429687499 0.21199999999999986 Q 7.773940429687499 0.21199999999999986 7.765940429687499 0.20799999999999985 Q 7.757940429687499 0.20399999999999985 7.7529404296874995 0.19399999999999984 Q 7.746940429687499 0.16799999999999982 7.717440429687499 0.14849999999999985 Q 7.687940429687499 0.1289999999999999 7.640940429687499 0.1289999999999999 Q 7.591940429687499 0.1289999999999999 7.563440429687499 0.1469999999999998 Q 7.5349404296874996 0.1649999999999998 7.5349404296874996 0.20199999999999985 Q 7.5349404296874996 0.22599999999999987 7.5494404296874995 0.24249999999999983 Q 7.5639404296874995 0.25899999999999984 7.598440429687499 0.27149999999999985 Q 7.632940429687499 0.28399999999999986 7.689940429687499 0.2989999999999998 Q 7.777940429687499 0.31699999999999984 7.832940429687499 0.34199999999999986 Q 7.887940429687499 0.3669999999999998 7.913940429687499 0.40649999999999986 Q 7.939940429687499 0.44599999999999984 7.939940429687499 0.5059999999999998 Q 7.939940429687499 0.5729999999999998 7.902440429687499 0.6209999999999999 Q 7.864940429687499 0.6689999999999998 7.7994404296874995 0.6944999999999999 Q 7.733940429687499 0.7199999999999999 7.646940429687499 0.7199999999999999" fill="#f9f9f9" fill-rule="nonzero"></path></g><g><path d=" M 2.245311279296875 1.8184999999999998 Q 2.239811279296875 1.8184999999999998 2.236811279296875 1.8152499999999998 Q 2.2338112792968747 1.8119999999999998 2.2338112792968747 1.8069999999999997 L 2.2338112792968747 1.4799999999999998 Q 2.2338112792968747 1.4749999999999996 2.236811279296875 1.4717499999999997 Q 2.239811279296875 1.4684999999999997 2.245311279296875 1.4684999999999997 L 2.271811279296875 1.4684999999999997 Q 2.276811279296875 1.4684999999999997 2.280061279296875 1.4717499999999997 Q 2.283311279296875 1.4749999999999996 2.283311279296875 1.4799999999999998 L 2.283311279296875 1.7749999999999997 L 2.4493112792968748 1.7749999999999997 Q 2.454811279296875 1.7749999999999997 2.458061279296875 1.7782499999999999 Q 2.4613112792968748 1.7814999999999999 2.4613112792968748 1.7869999999999997 L 2.4613112792968748 1.8069999999999997 Q 2.4613112792968748 1.8119999999999998 2.458061279296875 1.8152499999999998 Q 2.454811279296875 1.8184999999999998 2.4493112792968748 1.8184999999999998 L 2.245311279296875 1.8184999999999998 M 2.637050537109375 1.8234999999999997 Q 2.594050537109375 1.8234999999999997 2.563550537109375 1.8087499999999999 Q 2.533050537109375 1.7939999999999998 2.516550537109375 1.7632499999999998 Q 2.500050537109375 1.7324999999999997 2.498050537109375 1.6859999999999997 Q 2.4975505371093747 1.6639999999999997 2.4975505371093747 1.6437499999999998 Q 2.4975505371093747 1.6234999999999997 2.498050537109375 1.6014999999999997 Q 2.500050537109375 1.5554999999999999 2.517300537109375 1.5247499999999998 Q 2.534550537109375 1.4939999999999998 2.565300537109375 1.4787499999999998 Q 2.5960505371093747 1.4634999999999998 2.637050537109375 1.4634999999999998 Q 2.677550537109375 1.4634999999999998 2.7083005371093747 1.4787499999999998 Q 2.739050537109375 1.4939999999999998 2.756550537109375 1.5247499999999998 Q 2.7740505371093747 1.5554999999999999 2.7755505371093747 1.6014999999999997 Q 2.776550537109375 1.6234999999999997 2.776550537109375 1.6437499999999998 Q 2.776550537109375 1.6639999999999997 2.7755505371093747 1.6859999999999997 Q 2.7740505371093747 1.7324999999999997 2.757300537109375 1.7632499999999998 Q 2.740550537109375 1.7939999999999998 2.710050537109375 1.8087499999999999 Q 2.679550537109375 1.8234999999999997 2.637050537109375 1.8234999999999997 M 2.637050537109375 1.7809999999999997 Q 2.675050537109375 1.7809999999999997 2.699300537109375 1.7579999999999998 Q 2.723550537109375 1.7349999999999999 2.725550537109375 1.6834999999999998 Q 2.726550537109375 1.6609999999999998 2.726550537109375 1.6432499999999997 Q 2.726550537109375 1.6254999999999997 2.725550537109375 1.6034999999999997 Q 2.724550537109375 1.5689999999999997 2.712800537109375 1.5474999999999999 Q 2.7010505371093747 1.5259999999999998 2.681550537109375 1.5159999999999998 Q 2.662050537109375 1.5059999999999998 2.637050537109375 1.5059999999999998 Q 2.6120505371093747 1.5059999999999998 2.592550537109375 1.5159999999999998 Q 2.573050537109375 1.5259999999999998 2.561300537109375 1.5474999999999999 Q 2.5495505371093747 1.5689999999999997 2.5480505371093747 1.6034999999999997 Q 2.547550537109375 1.6254999999999997 2.547550537109375 1.6432499999999997 Q 2.547550537109375 1.6609999999999998 2.5480505371093747 1.6834999999999998 Q 2.550050537109375 1.7349999999999999 2.574550537109375 1.7579999999999998 Q 2.599050537109375 1.7809999999999997 2.637050537109375 1.7809999999999997 M 2.9048154296875 1.8184999999999998 Q 2.8983154296875 1.8184999999999998 2.8945654296875 1.8149999999999997 Q 2.8908154296874997 1.8114999999999999 2.8893154296875 1.8049999999999997 L 2.8248154296875 1.4839999999999998 Q 2.8243154296874997 1.4819999999999998 2.8243154296874997 1.4804999999999997 Q 2.8243154296874997 1.4789999999999996 2.8243154296874997 1.4784999999999997 Q 2.8243154296874997 1.4744999999999997 2.8273154296875 1.4714999999999998 Q 2.8303154296875 1.4684999999999997 2.8343154296875 1.4684999999999997 L 2.8603154296874997 1.4684999999999997 Q 2.8708154296875 1.4684999999999997 2.8723154296874998 1.4769999999999999 L 2.9233154296875 1.7349999999999999 L 2.9773154296874997 1.5579999999999998 Q 2.9788154296875 1.5534999999999997 2.9825654296875 1.5497499999999997 Q 2.9863154296875 1.5459999999999998 2.9933154296874998 1.5459999999999998 L 3.0118154296874997 1.5459999999999998 Q 3.0193154296875 1.5459999999999998 3.0228154296875 1.5497499999999997 Q 3.0263154296875 1.5534999999999997 3.0273154296875 1.5579999999999998 L 3.0818154296875 1.7349999999999999 L 3.1323154296875 1.4769999999999999 Q 3.1338154296875 1.4684999999999997 3.1448154296875 1.4684999999999997 L 3.1708154296875 1.4684999999999997 Q 3.1748154296875 1.4684999999999997 3.1778154296875 1.4714999999999998 Q 3.1808154296874998 1.4744999999999997 3.1808154296874998 1.4784999999999997 Q 3.1808154296874998 1.4789999999999996 3.1805654296875 1.4804999999999997 Q 3.1803154296875 1.4819999999999998 3.1803154296875 1.4839999999999998 L 3.1158154296875 1.8049999999999997 Q 3.1143154296874997 1.8114999999999999 3.1105654296875 1.8149999999999997 Q 3.1068154296875 1.8184999999999998 3.1003154296875 1.8184999999999998 L 3.0808154296875 1.8184999999999998 Q 3.0738154296875 1.8184999999999998 3.0698154296875 1.8149999999999997 Q 3.0658154296875 1.8114999999999999 3.0643154296875 1.8059999999999998 L 3.0023154296875 1.6154999999999997 L 2.9408154296875 1.8059999999999998 Q 2.9388154296874998 1.8114999999999999 2.9350654296875 1.8149999999999997 Q 2.9313154296875 1.8184999999999998 2.9243154296875 1.8184999999999998 L 2.9048154296875 1.8184999999999998 M 3.32582958984375 1.8184999999999998 Q 3.32182958984375 1.8184999999999998 3.31882958984375 1.8155 Q 3.3158295898437498 1.8124999999999998 3.3158295898437498 1.8084999999999998 Q 3.3158295898437498 1.8059999999999998 3.31632958984375 1.8029999999999997 L 3.44032958984375 1.4794999999999998 Q 3.44232958984375 1.4744999999999997 3.44582958984375 1.4714999999999998 Q 3.44932958984375 1.4684999999999997 3.45632958984375 1.4684999999999997 L 3.49032958984375 1.4684999999999997 Q 3.49732958984375 1.4684999999999997 3.50082958984375 1.4714999999999998 Q 3.50432958984375 1.4744999999999997 3.50632958984375 1.4794999999999998 L 3.62982958984375 1.8029999999999997 Q 3.63082958984375 1.8059999999999998 3.63082958984375 1.8084999999999998 Q 3.63082958984375 1.8124999999999998 3.62782958984375 1.8155 Q 3.62482958984375 1.8184999999999998 3.62082958984375 1.8184999999999998 L 3.59532958984375 1.8184999999999998 Q 3.58932958984375 1.8184999999999998 3.58657958984375 1.8155 Q 3.58382958984375 1.8124999999999998 3.58282958984375 1.8099999999999998 L 3.55532958984375 1.7389999999999999 L 3.39132958984375 1.7389999999999999 L 3.36382958984375 1.8099999999999998 Q 3.36332958984375 1.8124999999999998 3.36032958984375 1.8155 Q 3.35732958984375 1.8184999999999998 3.35132958984375 1.8184999999999998 L 3.32582958984375 1.8184999999999998 M 3.40582958984375 1.6959999999999997 L 3.54082958984375 1.6959999999999997 L 3.47332958984375 1.5184999999999997 L 3.40582958984375 1.6959999999999997 M 3.696571044921875 1.8184999999999998 Q 3.691071044921875 1.8184999999999998 3.688071044921875 1.8152499999999998 Q 3.685071044921875 1.8119999999999998 3.685071044921875 1.8069999999999997 L 3.685071044921875 1.4804999999999997 Q 3.685071044921875 1.4749999999999996 3.688071044921875 1.4717499999999997 Q 3.691071044921875 1.4684999999999997 3.696571044921875 1.4684999999999997 L 3.719571044921875 1.4684999999999997 Q 3.725571044921875 1.4684999999999997 3.728571044921875 1.4712499999999997 Q 3.731571044921875 1.4739999999999998 3.732071044921875 1.4754999999999998 L 3.898071044921875 1.7304999999999997 L 3.898071044921875 1.4804999999999997 Q 3.898071044921875 1.4749999999999996 3.901071044921875 1.4717499999999997 Q 3.904071044921875 1.4684999999999997 3.909571044921875 1.4684999999999997 L 3.933571044921875 1.4684999999999997 Q 3.939071044921875 1.4684999999999997 3.942321044921875 1.4717499999999997 Q 3.945571044921875 1.4749999999999996 3.945571044921875 1.4804999999999997 L 3.945571044921875 1.8064999999999998 Q 3.945571044921875 1.8114999999999999 3.942321044921875 1.8149999999999997 Q 3.939071044921875 1.8184999999999998 3.934071044921875 1.8184999999999998 L 3.910071044921875 1.8184999999999998 Q 3.904571044921875 1.8184999999999998 3.901821044921875 1.8155 Q 3.899071044921875 1.8124999999999998 3.898071044921875 1.8114999999999999 L 3.732571044921875 1.5589999999999997 L 3.732571044921875 1.8069999999999997 Q 3.732571044921875 1.8119999999999998 3.729321044921875 1.8152499999999998 Q 3.726071044921875 1.8184999999999998 3.720571044921875 1.8184999999999998 L 3.696571044921875 1.8184999999999998 M 4.04482470703125 1.8184999999999998 Q 4.03932470703125 1.8184999999999998 4.03632470703125 1.8152499999999998 Q 4.03332470703125 1.8119999999999998 4.03332470703125 1.8069999999999997 L 4.03332470703125 1.4804999999999997 Q 4.03332470703125 1.4749999999999996 4.03632470703125 1.4717499999999997 Q 4.03932470703125 1.4684999999999997 4.04482470703125 1.4684999999999997 L 4.15832470703125 1.4684999999999997 Q 4.20982470703125 1.4684999999999997 4.24132470703125 1.4839999999999998 Q 4.27282470703125 1.4994999999999998 4.28732470703125 1.5297499999999997 Q 4.30182470703125 1.5599999999999998 4.30232470703125 1.6039999999999999 Q 4.30282470703125 1.6264999999999998 4.30282470703125 1.6434999999999997 Q 4.30282470703125 1.6604999999999999 4.30232470703125 1.6824999999999997 Q 4.30132470703125 1.7284999999999997 4.28707470703125 1.7587499999999998 Q 4.27282470703125 1.7889999999999997 4.24207470703125 1.8037499999999997 Q 4.21132470703125 1.8184999999999998 4.16082470703125 1.8184999999999998 L 4.04482470703125 1.8184999999999998 M 4.08232470703125 1.7759999999999998 L 4.15832470703125 1.7759999999999998 Q 4.19282470703125 1.7759999999999998 4.21332470703125 1.7664999999999997 Q 4.23382470703125 1.7569999999999997 4.2430747070312504 1.7359999999999998 Q 4.25232470703125 1.7149999999999999 4.25282470703125 1.6804999999999999 Q 4.25382470703125 1.6654999999999998 4.25382470703125 1.6542499999999998 Q 4.25382470703125 1.6429999999999998 4.25382470703125 1.6317499999999998 Q 4.25382470703125 1.6204999999999998 4.25282470703125 1.6059999999999999 Q 4.2518247070312505 1.5574999999999997 4.22982470703125 1.5342499999999997 Q 4.20782470703125 1.5109999999999997 4.15582470703125 1.5109999999999997 L 4.08232470703125 1.5109999999999997 L 4.08232470703125 1.7759999999999998 M 4.614335205078125 1.8234999999999997 Q 4.570835205078125 1.8234999999999997 4.541335205078125 1.8099999999999998 Q 4.511835205078125 1.7964999999999998 4.496085205078125 1.7752499999999998 Q 4.480335205078125 1.7539999999999998 4.479335205078125 1.7304999999999997 Q 4.479335205078125 1.7264999999999997 4.482585205078125 1.7232499999999997 Q 4.485835205078125 1.7199999999999998 4.490335205078125 1.7199999999999998 L 4.515835205078125 1.7199999999999998 Q 4.521835205078125 1.7199999999999998 4.524835205078125 1.7229999999999999 Q 4.527835205078125 1.7259999999999998 4.528835205078125 1.7299999999999998 Q 4.531835205078125 1.7419999999999998 4.541335205078125 1.7537499999999997 Q 4.550835205078125 1.7654999999999998 4.568585205078125 1.7732499999999998 Q 4.586335205078125 1.7809999999999997 4.614335205078125 1.7809999999999997 Q 4.657335205078125 1.7809999999999997 4.677585205078125 1.7657499999999997 Q 4.697835205078125 1.7504999999999997 4.697835205078125 1.7249999999999999 Q 4.697835205078125 1.7074999999999998 4.687085205078125 1.6967499999999998 Q 4.676335205078125 1.6859999999999997 4.654335205078125 1.6774999999999998 Q 4.6323352050781255 1.6689999999999998 4.597335205078125 1.6589999999999998 Q 4.560835205078125 1.6484999999999999 4.536835205078125 1.6359999999999997 Q 4.512835205078125 1.6234999999999997 4.501085205078125 1.6049999999999998 Q 4.489335205078125 1.5864999999999998 4.489335205078125 1.5579999999999998 Q 4.489335205078125 1.5309999999999997 4.503835205078125 1.5097499999999997 Q 4.518335205078125 1.4884999999999997 4.545835205078125 1.4759999999999998 Q 4.573335205078125 1.4634999999999998 4.611835205078125 1.4634999999999998 Q 4.642835205078125 1.4634999999999998 4.666085205078125 1.4717499999999997 Q 4.689335205078125 1.4799999999999998 4.704835205078125 1.49375 Q 4.7203352050781255 1.5074999999999998 4.728335205078125 1.5232499999999998 Q 4.7363352050781256 1.5389999999999997 4.736835205078125 1.5539999999999998 Q 4.736835205078125 1.5574999999999997 4.734335205078125 1.5607499999999999 Q 4.731835205078125 1.5639999999999998 4.726335205078125 1.5639999999999998 L 4.699835205078125 1.5639999999999998 Q 4.6963352050781255 1.5639999999999998 4.692585205078125 1.5619999999999998 Q 4.688835205078125 1.5599999999999998 4.6868352050781255 1.5544999999999998 Q 4.683835205078125 1.5339999999999998 4.663835205078125 1.5199999999999998 Q 4.643835205078125 1.5059999999999998 4.611835205078125 1.5059999999999998 Q 4.5793352050781255 1.5059999999999998 4.559085205078125 1.5184999999999997 Q 4.538835205078125 1.5309999999999997 4.538835205078125 1.5574999999999997 Q 4.538835205078125 1.5744999999999998 4.548335205078125 1.5857499999999998 Q 4.557835205078125 1.5969999999999998 4.578335205078125 1.6054999999999997 Q 4.598835205078125 1.6139999999999999 4.631835205078125 1.6234999999999997 Q 4.671835205078125 1.6344999999999998 4.697335205078125 1.6467499999999997 Q 4.722835205078125 1.6589999999999998 4.735085205078125 1.6772499999999997 Q 4.747335205078125 1.6954999999999998 4.747335205078125 1.7239999999999998 Q 4.747335205078125 1.7554999999999998 4.730835205078125 1.7777499999999997 Q 4.714335205078125 1.7999999999999998 4.684585205078125 1.8117499999999997 Q 4.654835205078125 1.8234999999999997 4.614335205078125 1.8234999999999997 M 4.82508984375 1.8184999999999998 Q 4.81958984375 1.8184999999999998 4.81658984375 1.8152499999999998 Q 4.81358984375 1.8119999999999998 4.81358984375 1.8069999999999997 L 4.81358984375 1.4799999999999998 Q 4.81358984375 1.4749999999999996 4.81658984375 1.4717499999999997 Q 4.81958984375 1.4684999999999997 4.82508984375 1.4684999999999997 L 4.85158984375 1.4684999999999997 Q 4.85658984375 1.4684999999999997 4.8598398437500006 1.4717499999999997 Q 4.86308984375 1.4749999999999996 4.86308984375 1.4799999999999998 L 4.86308984375 1.7749999999999997 L 5.0290898437500005 1.7749999999999997 Q 5.03458984375 1.7749999999999997 5.0378398437500005 1.7782499999999999 Q 5.04108984375 1.7814999999999999 5.04108984375 1.7869999999999997 L 5.04108984375 1.8069999999999997 Q 5.04108984375 1.8119999999999998 5.0378398437500005 1.8152499999999998 Q 5.03458984375 1.8184999999999998 5.0290898437500005 1.8184999999999998 L 4.82508984375 1.8184999999999998 M 5.2168291015625 1.8234999999999997 Q 5.1738291015625 1.8234999999999997 5.1433291015625 1.8087499999999999 Q 5.1128291015625 1.7939999999999998 5.0963291015625005 1.7632499999999998 Q 5.0798291015625 1.7324999999999997 5.0778291015625 1.6859999999999997 Q 5.0773291015625 1.6639999999999997 5.0773291015625 1.6437499999999998 Q 5.0773291015625 1.6234999999999997 5.0778291015625 1.6014999999999997 Q 5.0798291015625 1.5554999999999999 5.0970791015625005 1.5247499999999998 Q 5.1143291015625 1.4939999999999998 5.1450791015625 1.4787499999999998 Q 5.1758291015625 1.4634999999999998 5.2168291015625 1.4634999999999998 Q 5.2573291015625 1.4634999999999998 5.2880791015625 1.4787499999999998 Q 5.3188291015625 1.4939999999999998 5.3363291015625 1.5247499999999998 Q 5.3538291015625 1.5554999999999999 5.3553291015625 1.6014999999999997 Q 5.3563291015625 1.6234999999999997 5.3563291015625 1.6437499999999998 Q 5.3563291015625 1.6639999999999997 5.3553291015625 1.6859999999999997 Q 5.3538291015625 1.7324999999999997 5.3370791015625 1.7632499999999998 Q 5.3203291015625 1.7939999999999998 5.2898291015625 1.8087499999999999 Q 5.2593291015625 1.8234999999999997 5.2168291015625 1.8234999999999997 M 5.2168291015625 1.7809999999999997 Q 5.2548291015625 1.7809999999999997 5.2790791015625 1.7579999999999998 Q 5.3033291015625 1.7349999999999999 5.3053291015625 1.6834999999999998 Q 5.3063291015625005 1.6609999999999998 5.3063291015625005 1.6432499999999997 Q 5.3063291015625005 1.6254999999999997 5.3053291015625 1.6034999999999997 Q 5.3043291015625 1.5689999999999997 5.2925791015625006 1.5474999999999999 Q 5.2808291015625 1.5259999999999998 5.2613291015625006 1.5159999999999998 Q 5.2418291015625 1.5059999999999998 5.2168291015625 1.5059999999999998 Q 5.1918291015625 1.5059999999999998 5.1723291015625 1.5159999999999998 Q 5.1528291015625 1.5259999999999998 5.1410791015625 1.5474999999999999 Q 5.1293291015625 1.5689999999999997 5.1278291015625 1.6034999999999997 Q 5.1273291015625 1.6254999999999997 5.1273291015625 1.6432499999999997 Q 5.1273291015625 1.6609999999999998 5.1278291015625 1.6834999999999998 Q 5.1298291015625 1.7349999999999999 5.1543291015625 1.7579999999999998 Q 5.1788291015625 1.7809999999999997 5.2168291015625 1.7809999999999997 M 5.484593994140625 1.8184999999999998 Q 5.478093994140625 1.8184999999999998 5.474343994140625 1.8149999999999997 Q 5.470593994140625 1.8114999999999999 5.469093994140625 1.8049999999999997 L 5.404593994140625 1.4839999999999998 Q 5.404093994140625 1.4819999999999998 5.404093994140625 1.4804999999999997 Q 5.404093994140625 1.4789999999999996 5.404093994140625 1.4784999999999997 Q 5.404093994140625 1.4744999999999997 5.4070939941406255 1.4714999999999998 Q 5.410093994140625 1.4684999999999997 5.414093994140625 1.4684999999999997 L 5.440093994140625 1.4684999999999997 Q 5.450593994140625 1.4684999999999997 5.4520939941406255 1.4769999999999999 L 5.503093994140626 1.7349999999999999 L 5.557093994140625 1.5579999999999998 Q 5.558593994140625 1.5534999999999997 5.562343994140625 1.5497499999999997 Q 5.566093994140625 1.5459999999999998 5.573093994140625 1.5459999999999998 L 5.591593994140625 1.5459999999999998 Q 5.599093994140625 1.5459999999999998 5.6025939941406255 1.5497499999999997 Q 5.606093994140625 1.5534999999999997 5.607093994140625 1.5579999999999998 L 5.661593994140625 1.7349999999999999 L 5.712093994140625 1.4769999999999999 Q 5.713593994140625 1.4684999999999997 5.724593994140625 1.4684999999999997 L 5.750593994140625 1.4684999999999997 Q 5.754593994140625 1.4684999999999997 5.757593994140625 1.4714999999999998 Q 5.760593994140625 1.4744999999999997 5.760593994140625 1.4784999999999997 Q 5.760593994140625 1.4789999999999996 5.760343994140626 1.4804999999999997 Q 5.760093994140625 1.4819999999999998 5.760093994140625 1.4839999999999998 L 5.6955939941406255 1.8049999999999997 Q 5.6940939941406254 1.8114999999999999 5.690343994140625 1.8149999999999997 Q 5.686593994140625 1.8184999999999998 5.680093994140625 1.8184999999999998 L 5.660593994140625 1.8184999999999998 Q 5.653593994140625 1.8184999999999998 5.649593994140625 1.8149999999999997 Q 5.645593994140625 1.8114999999999999 5.644093994140626 1.8059999999999998 L 5.582093994140625 1.6154999999999997 L 5.520593994140625 1.8059999999999998 Q 5.518593994140625 1.8114999999999999 5.514843994140625 1.8149999999999997 Q 5.511093994140625 1.8184999999999998 5.504093994140625 1.8184999999999998 L 5.484593994140625 1.8184999999999998" fill="#e9e9e5" fill-rule="nonzero"></path></g></g><defs><clipPath id="SvgjsClipPath1002"><path d=" M 3.60701904296875 -0.24349999999999988 h 1.2069999999999996 v 1.2069999999999996 h -1.2069999999999996 Z"></path></clipPath><clipPath id="SvgjsClipPath1000173b83ea-4b56-4415-a9b2-45a1ca78ad08"><path d=" M 3.60701904296875 -0.24349999999999988 L 4.8140190429687495 -0.24349999999999988 L 4.8140190429687495 0.9634999999999998 L 3.60701904296875 0.9634999999999998 Z"></path></clipPath></defs></svg>